<svg width="25" height="25" viewBox="0 0 25 25" fill="none" xmlns="http://www.w3.org/2000/svg">
<path d="M12.5 0C5.60547 0 0 5.60547 0 12.5C0 19.3945 5.60547 25 12.5 25C19.3945 25 25 19.3945 25 12.5C25 5.60547 19.3945 0 12.5 0ZM12.5 23.4375C6.46973 23.4375 1.5625 18.5303 1.5625 12.5C1.5625 6.46973 6.46973 1.5625 12.5 1.5625C18.5303 1.5625 23.4375 6.46973 23.4375 12.5C23.4375 18.5303 18.5303 23.4375 12.5 23.4375ZM18.5449 8.28613C18.8477 8.58887 18.8477 9.08691 18.5449 9.38965L11.2207 16.7139C11.0693 16.8652 10.8691 16.9434 10.6689 16.9434C10.4688 16.9434 10.2686 16.8652 10.1172 16.7139L6.45508 13.0518C6.15234 12.749 6.15234 12.251 6.45508 11.9482C6.75781 11.6455 7.25586 11.6455 7.55859 11.9482L10.6689 15.0586L17.4414 8.28613C17.7441 7.97852 18.2422 7.97852 18.5449 8.28613Z" fill="#2E6FFF"/>
</svg>
