<svg width="14" height="14" viewBox="0 0 14 14" fill="none" xmlns="http://www.w3.org/2000/svg">
<path d="M13.3163 14C13.4515 14 13.5837 13.9599 13.6961 13.8848C13.8086 13.8097 13.8962 13.703 13.948 13.578C13.9997 13.4531 14.0132 13.3156 13.9869 13.183C13.9605 13.0504 13.8953 12.9286 13.7997 12.833L1.16714 0.200245C1.03893 0.0720303 0.865032 0 0.683711 0C0.50239 0 0.328496 0.0720303 0.200283 0.200245C0.0720692 0.32846 3.91006e-05 0.502356 3.91006e-05 0.68368C3.91006e-05 0.865003 0.0720692 1.0389 0.200283 1.16711L12.8329 13.7998C12.8963 13.8634 12.9716 13.9138 13.0546 13.9482C13.1376 13.9825 13.2265 14.0001 13.3163 14Z" fill="white"/>
<path d="M0.683748 14C0.77354 14.0001 0.86247 13.9825 0.945431 13.9482C1.02839 13.9138 1.10375 13.8634 1.16718 13.7998L13.7998 1.16711C13.928 1.0389 14 0.865003 14 0.68368C14 0.502356 13.928 0.32846 13.7998 0.200245C13.6715 0.0720303 13.4976 0 13.3163 0C13.135 0 12.9611 0.0720303 12.8329 0.200245L0.20032 12.833C0.104693 12.9286 0.0395679 13.0504 0.0131817 13.183C-0.0132055 13.3156 0.000332832 13.4531 0.0520821 13.578C0.103831 13.703 0.191466 13.8097 0.303905 13.8848C0.416343 13.9599 0.548531 14 0.683748 14Z" fill="white"/>
</svg>
