<svg width="15" height="15" viewBox="0 0 15 15" fill="none" xmlns="http://www.w3.org/2000/svg">
<path d="M7.06114 0C7.35396 0 7.64712 0 7.93994 0C7.97768 0.0080908 8.01508 0.0215754 8.05316 0.0239353C9.10482 0.095404 10.1009 0.372177 11.0221 0.880886C13.1352 2.04798 14.4278 3.82156 14.8821 6.19722C14.9367 6.48309 14.9616 6.7747 15 7.06327V7.94247C14.969 8.19295 14.9474 8.44511 14.9057 8.6939C14.6192 10.3977 13.8577 11.8547 12.5789 13.0174C10.854 14.586 8.8147 15.2131 6.50448 14.9366C5.58119 14.8261 4.70947 14.5324 3.89638 14.0766C3.80236 14.0237 3.7225 14.0241 3.6231 14.0561C2.69645 14.3575 1.76778 14.6524 0.841128 14.9532C0.639961 15.0182 0.448566 15.027 0.26728 14.9049C0.0280354 14.7435 -0.0491293 14.4916 0.049938 14.1812C0.347814 13.248 0.646363 12.3149 0.949968 11.3834C0.984675 11.2772 0.976925 11.1943 0.923011 11.0972C0.469458 10.2827 0.184723 9.40927 0.0671231 8.48624C-0.135055 6.90112 0.114635 5.38611 0.882238 3.98202C2.04072 1.86392 3.81955 0.573773 6.19413 0.118328C6.48021 0.063378 6.77202 0.0387684 7.06148 0H7.06114ZM1.49787 13.5046C1.56627 13.4847 1.60772 13.4735 1.64883 13.4604C2.23818 13.2713 2.83326 13.098 3.41452 12.887C3.75687 12.7629 4.05846 12.768 4.3506 12.9884C4.37385 13.006 4.40048 13.0194 4.42608 13.0333C5.79921 13.7817 7.25523 14.0153 8.78572 13.6977C10.3775 13.3674 11.6563 12.5283 12.6113 11.2155C13.7074 9.70863 14.0595 8.0254 13.6879 6.20463C13.3627 4.61041 12.5142 3.33442 11.2007 2.38207C9.69754 1.29183 8.01845 0.941904 6.2039 1.3124C4.62691 1.63434 3.36802 2.47579 2.40666 3.76323C1.61412 4.82482 1.21145 6.02495 1.17708 7.34476C1.14541 8.56445 1.44429 9.70391 2.07475 10.7507C2.21661 10.986 2.24256 11.2115 2.15394 11.4738C1.92851 12.1382 1.72094 12.8088 1.49753 13.5046H1.49787Z" fill="white"/>
<path d="M5.30261 7.50545C5.30126 7.9073 4.96328 8.24037 4.56162 8.23497C4.16536 8.22958 3.8385 7.89718 3.83985 7.50107C3.8412 7.09923 4.17917 6.76616 4.58083 6.77155C4.9771 6.77694 5.30395 7.10934 5.30261 7.50545Z" fill="white"/>
<path d="M7.49846 8.23491C7.0968 8.23356 6.76388 7.8951 6.7696 7.49359C6.775 7.09714 7.10724 6.77014 7.50317 6.77149C7.90483 6.77284 8.23775 7.1113 8.23203 7.51281C8.22663 7.90926 7.89439 8.23626 7.49846 8.23491Z" fill="white"/>
<path d="M11.1618 7.50943C11.1577 7.91161 10.8177 8.24232 10.4164 8.23423C10.0198 8.22614 9.6953 7.89205 9.69901 7.49594C9.70305 7.09376 10.043 6.76305 10.4444 6.77114C10.8406 6.77923 11.1655 7.11331 11.1618 7.50943Z" fill="white"/>
</svg>
