<svg width="15" height="15" viewBox="0 0 15 15" fill="none" xmlns="http://www.w3.org/2000/svg">
<path d="M3.62049 3.61572C3.62272 1.62109 5.24642 0 7.24191 0C9.24371 0 10.8678 1.63061 10.8619 3.63365C10.8559 5.62755 9.22813 7.24572 7.23227 7.24169C5.23826 7.23767 3.61826 5.61109 3.62012 3.61572H3.62049ZM7.24822 1.03463C5.8182 1.03207 4.65608 2.18963 4.65497 3.61755C4.65386 5.03962 5.80744 6.20157 7.22596 6.20706C8.65635 6.21255 9.82329 5.05755 9.82737 3.63146C9.83145 2.20134 8.6749 1.03683 7.24822 1.03427V1.03463Z" fill="white"/>
<path d="M14.9999 11.6334C15.0021 13.4872 13.4949 14.9989 11.6426 15C9.78851 15.0011 8.27761 13.4945 8.27612 11.6426C8.27464 9.78807 9.78035 8.27856 11.6334 8.27637C13.4882 8.27454 14.9973 9.77929 14.9995 11.6331L14.9999 11.6334ZM11.6475 9.311C10.3659 9.30771 9.31691 10.3445 9.31098 11.6203C9.30467 12.9092 10.3455 13.9621 11.6289 13.965C12.9105 13.9679 13.9591 12.9311 13.9654 11.655C13.9717 10.3658 12.932 9.31393 11.6475 9.31064V9.311Z" fill="white"/>
<path d="M1.03821 13.449H1.24451C3.22702 13.449 5.20952 13.4486 7.1924 13.4493C7.5935 13.4493 7.85435 13.7852 7.72671 14.1364C7.65138 14.3431 7.49777 14.4561 7.28034 14.4814C7.23247 14.4869 7.18349 14.4836 7.13489 14.4836C4.96389 14.4836 2.79252 14.4836 0.621522 14.4836C0.19222 14.4836 -0.00406437 14.2915 0.000388203 13.8642C0.00669601 13.2404 -0.0292956 12.6159 0.0924079 11.9958C0.478297 10.0341 2.18474 8.46897 4.17875 8.31128C4.93383 8.25165 5.69671 8.28421 6.45587 8.27653C6.70892 8.27397 6.96235 8.27397 7.2154 8.27653C7.52894 8.27982 7.75973 8.50226 7.75788 8.7964C7.75602 9.08982 7.52523 9.30933 7.2091 9.31006C6.37943 9.31189 5.54977 9.31006 4.72011 9.31079C2.8812 9.31262 1.42595 10.5218 1.0857 12.332C1.06195 12.4586 1.04414 12.5881 1.04043 12.7165C1.03338 12.9529 1.03821 13.1896 1.03821 13.449Z" fill="white"/>
<path d="M11.3738 11.6036C11.7686 11.2378 12.1645 10.8734 12.5578 10.5061C12.7077 10.3663 12.8773 10.3111 13.0762 10.3689C13.2684 10.4248 13.3875 10.5558 13.4339 10.7483C13.4762 10.9228 13.4346 11.083 13.3107 11.2114C12.8068 11.7346 12.3022 12.257 11.7913 12.7732C11.5753 12.9913 11.2714 12.9902 11.0555 12.774C10.6904 12.4089 10.3304 12.0382 9.97497 11.6632C9.7709 11.4478 9.78092 11.1372 9.98351 10.9374C10.1891 10.7347 10.5045 10.7373 10.7211 10.9517C10.9508 11.1785 11.1738 11.4119 11.4002 11.642C11.4072 11.6493 11.4187 11.6523 11.428 11.6574C11.4102 11.6395 11.392 11.6212 11.3742 11.6032L11.3738 11.6036Z" fill="white"/>
</svg>
