<svg width="512" height="512" viewBox="0 0 512 512" fill="none" xmlns="http://www.w3.org/2000/svg">
<g clip-path="url(#clip0_128_38)">
<path d="M491.672 156.671C478.12 125.113 459.896 97.8897 437.01 75.0039C414.12 52.117 386.898 33.8967 355.339 20.3382C323.783 6.77982 290.677 0.00585938 256.008 0.00585938C223.343 0.00585938 191.734 6.16687 161.174 18.5029C130.621 30.8366 103.454 48.2245 79.6751 70.6712L36.3368 27.6656C29.669 20.7761 22.0054 19.2221 13.3354 22.9967C4.44475 26.7795 0 33.3374 0 42.6694V192.004C0 197.78 2.11205 202.781 6.33497 207.003C10.5602 211.226 15.5607 213.338 21.3376 213.338H170.672C180.007 213.338 186.562 208.893 190.34 200.003C194.116 191.337 192.562 183.672 185.671 177.002L140.003 131.004C155.564 116.336 173.34 105.059 193.339 97.1693C213.34 89.2804 234.227 85.333 256.006 85.333C279.115 85.333 301.174 89.8373 322.174 98.833C343.178 107.835 361.337 120.001 376.673 135.336C392.007 150.666 404.174 168.832 413.175 189.834C422.169 210.834 426.672 232.887 426.672 256.002C426.672 279.117 422.17 301.169 413.175 322.168C404.174 343.168 392.007 361.331 376.673 376.667C361.337 392.001 343.171 404.171 322.174 413.169C301.174 422.167 279.115 426.667 256.006 426.667C229.56 426.667 204.56 420.889 181.003 409.338C157.45 397.786 137.561 381.454 121.338 360.333C119.784 358.113 117.227 356.777 113.671 356.33C110.337 356.33 107.558 357.328 105.336 359.326L59.6697 405.328C57.8939 407.115 56.9493 409.389 56.8373 412.162C56.7275 414.946 57.4525 417.444 59.0065 419.665C83.2314 448.999 112.562 471.722 147.006 487.828C181.45 503.937 217.787 511.996 256.008 511.996C290.677 511.996 323.783 505.216 355.339 491.663C386.898 478.112 414.112 459.883 437.005 436.998C459.895 414.105 478.115 386.887 491.671 355.332C505.227 323.776 511.999 290.66 511.999 255.999C512 221.326 505.224 188.228 491.672 156.671Z" fill="white"/>
</g>
<defs>
<clipPath id="clip0_128_38">
<rect width="512" height="512" fill="white"/>
</clipPath>
</defs>
</svg>
