<svg width="25" height="25" viewBox="0 0 25 25" fill="none" xmlns="http://www.w3.org/2000/svg">
<path d="M12.5 0C5.60446 0 0 5.60446 0 12.5C0 19.3955 5.60446 25 12.5 25C19.3955 25 25 19.3955 25 12.5C25 5.60446 19.3955 0 12.5 0ZM12.5 23.7383C6.30868 23.7383 1.26174 18.6913 1.26174 12.5C1.26174 6.30868 6.30868 1.26174 12.5 1.26174C18.6913 1.26174 23.7383 6.30868 23.7383 12.5C23.7383 18.6913 18.6913 23.7383 12.5 23.7383Z" fill="#313131"/>
<path d="M13.3802 12.4434L17.0481 8.77558C17.2828 8.54083 17.2828 8.13004 17.0481 7.89529C16.8133 7.66055 16.4025 7.66055 16.1678 7.89529L12.4999 11.5631L8.8321 7.89529C8.59735 7.66055 8.18656 7.66055 7.95181 7.89529C7.71707 8.13004 7.71707 8.54083 7.95181 8.77558L11.6197 12.4434L7.95181 16.0819C7.71707 16.3167 7.71707 16.7275 7.95181 16.9622C8.06918 17.0796 8.24524 17.1383 8.39195 17.1383C8.53867 17.1383 8.71472 17.0796 8.8321 16.9622L12.4999 13.2944L16.1678 16.9622C16.2851 17.0796 16.4612 17.1383 16.6079 17.1383C16.7546 17.1383 16.9307 17.0796 17.0481 16.9622C17.2828 16.7275 17.2828 16.3167 17.0481 16.0819L13.3802 12.4434Z" fill="#313131"/>
</svg>
