<svg width="92" height="104" viewBox="0 0 92 104" fill="none" xmlns="http://www.w3.org/2000/svg">
<path d="M73.8759 56.1477H64.1661C65.1558 58.7937 65.6965 61.6493 65.6965 64.6255V100.46C65.6965 101.701 65.4753 102.892 65.0729 104H81.1254C87.1218 104 92 99.236 92 93.3808V73.8457C92.0002 64.0872 83.8697 56.1477 73.8759 56.1477ZM40.3224 46.9275H18.1244C8.13058 46.9275 0 54.8669 0 64.6257V100.46C0 102.415 1.62288 104 3.62487 104H54.8219C56.8239 104 58.4467 102.415 58.4467 100.46V64.6257C58.4467 54.8669 50.3162 46.9275 40.3224 46.9275ZM29.2234 0C17.2045 0 7.42655 9.54808 7.42655 21.2846C7.42655 29.2453 11.9261 36.1979 18.5712 39.8482C21.723 41.5795 25.3567 42.5689 29.2234 42.5689C33.09 42.5689 36.7237 41.5795 39.8756 39.8482C46.5209 36.1979 51.0202 29.2451 51.0202 21.2846C51.0202 9.54832 41.2422 0 29.2234 0ZM67.4981 19.8387C58.5095 19.8387 51.197 26.9793 51.197 35.7566C51.1943 38.3652 51.8525 40.934 53.1129 43.2341C54.8528 46.4131 57.6645 48.9509 61.0745 50.3843C63.1033 51.2373 65.2893 51.6763 67.4981 51.6745C76.4868 51.6745 83.7993 44.5339 83.7993 35.7566C83.7993 26.9793 76.4868 19.8387 67.4981 19.8387Z" fill="url(#paint0_linear_2858_251)"/>
<defs>
<linearGradient id="paint0_linear_2858_251" x1="46" y1="0" x2="46" y2="104" gradientUnits="userSpaceOnUse">
<stop stop-color="#2E6FFF"/>
<stop offset="1" stop-color="#6D9AFF"/>
</linearGradient>
</defs>
</svg>
