<svg width="12" height="11" viewBox="0 0 12 11" fill="none" xmlns="http://www.w3.org/2000/svg">
<path d="M4.00609 3.48104C4.00609 3.37845 4.04684 3.28007 4.11938 3.20753C4.19192 3.13499 4.2903 3.09424 4.39289 3.09424H6.45583C6.55841 3.09424 6.6568 3.13499 6.72934 3.20753C6.80188 3.28007 6.84263 3.37845 6.84263 3.48104C6.84263 3.58363 6.80188 3.68201 6.72934 3.75455C6.6568 3.82709 6.55841 3.86784 6.45583 3.86784H4.39289C4.2903 3.86784 4.19192 3.82709 4.11938 3.75455C4.04684 3.68201 4.00609 3.58363 4.00609 3.48104ZM4.00609 5.54398C4.00609 5.44139 4.04684 5.34301 4.11938 5.27047C4.19192 5.19793 4.2903 5.15718 4.39289 5.15718H8.51877C8.62135 5.15718 8.71974 5.19793 8.79228 5.27047C8.86482 5.34301 8.90557 5.44139 8.90557 5.54398C8.90557 5.64656 8.86482 5.74495 8.79228 5.81749C8.71974 5.89003 8.62135 5.93078 8.51877 5.93078H4.39289C4.2903 5.93078 4.19192 5.89003 4.11938 5.81749C4.04684 5.74495 4.00609 5.64656 4.00609 5.54398Z" fill="#292929"/>
<path fill-rule="evenodd" clip-rule="evenodd" d="M5.40683 0H7.50484C8.21191 0 8.76684 2.68977e-08 9.21243 0.0361015C9.66628 0.0737501 10.0412 0.150079 10.3806 0.323366C10.9386 0.607683 11.3923 1.06137 11.6766 1.61941C11.8499 1.95876 11.9262 2.3337 11.9634 2.78755C12 3.23314 12 3.78807 12 4.49514V5.19912C12 5.998 12 6.48485 11.8803 6.89434C11.7405 7.3713 11.483 7.80547 11.1315 8.15693C10.7801 8.50839 10.3459 8.76587 9.86897 8.90571C9.45947 9.02536 8.97262 9.02536 8.17374 9.02536H7.78385C7.33674 9.02834 6.90124 9.16799 6.53577 9.42557L6.50998 9.44362L5.16392 10.4055C4.38773 10.9594 3.36761 10.1589 3.72244 9.27394C3.73351 9.24642 3.73765 9.21659 3.73449 9.18708C3.73132 9.15758 3.72096 9.12931 3.7043 9.10475C3.68764 9.0802 3.6652 9.06011 3.63895 9.04627C3.61271 9.03242 3.58346 9.02524 3.55379 9.02536H3.24383C2.62531 9.02536 2.03212 8.77965 1.59475 8.34229C1.15739 7.90492 0.911682 7.31173 0.911682 6.69321V4.49514C0.911682 3.78807 0.911682 3.23314 0.947784 2.78755C0.985432 2.3337 1.06176 1.95876 1.23505 1.61941C1.51937 1.06137 1.97306 0.607683 2.53109 0.323366C2.87044 0.150079 3.24538 0.0737501 3.69923 0.0366172C4.14482 -1.15276e-08 4.69975 0 5.40683 0ZM3.76215 0.807641C3.35627 0.840648 3.09427 0.904599 2.88231 1.01239C2.46969 1.22256 2.13424 1.55801 1.92407 1.97062C1.81577 2.18259 1.75233 2.44458 1.71932 2.85047C1.6858 3.26099 1.68528 3.78395 1.68528 4.51268V6.69321C1.68528 7.10656 1.84949 7.50298 2.14177 7.79527C2.2865 7.93999 2.45831 8.05479 2.6474 8.13312C2.8365 8.21144 3.03916 8.25176 3.24383 8.25176H3.55379C3.70989 8.25162 3.86365 8.28977 4.00158 8.36285C4.13951 8.43594 4.25742 8.54174 4.34497 8.67097C4.43252 8.80021 4.48704 8.94895 4.50376 9.10415C4.52048 9.25936 4.49888 9.41629 4.44086 9.56121C4.37329 9.72934 4.56669 9.88096 4.7142 9.77575L6.08966 8.79328C6.58438 8.44458 7.17396 8.25561 7.77921 8.25176H8.09793C8.99634 8.25176 9.36251 8.24763 9.65132 8.16305C10.0038 8.05967 10.3246 7.86939 10.5843 7.60967C10.844 7.34996 11.0343 7.02915 11.1377 6.6767C11.2223 6.38789 11.2264 6.02172 11.2264 5.12331V4.51268C11.2264 3.78395 11.2264 3.26099 11.1923 2.85047C11.1593 2.44458 11.0954 2.18259 10.9876 1.97062C10.7776 1.55809 10.4423 1.22265 10.0299 1.01239C9.81739 0.904083 9.5554 0.840648 9.14952 0.807641C8.73899 0.774118 8.21603 0.773602 7.4873 0.773602H5.42436C4.69563 0.773602 4.17267 0.773602 3.76215 0.807641Z" fill="#292929"/>
</svg>
