<svg width="3" height="11" viewBox="0 0 3 11" fill="none" xmlns="http://www.w3.org/2000/svg">
<path d="M1.32352 2.64704C2.05146 2.64704 2.64704 2.05146 2.64704 1.32352C2.64704 0.595585 2.05146 0 1.32352 0C0.595585 0 0 0.595585 0 1.32352C0 2.05146 0.595585 2.64704 1.32352 2.64704ZM1.32352 3.97057C0.595585 3.97057 0 4.56615 0 5.29409C0 6.02203 0.595585 6.61761 1.32352 6.61761C2.05146 6.61761 2.64704 6.02203 2.64704 5.29409C2.64704 4.56615 2.05146 3.97057 1.32352 3.97057ZM1.32352 7.94113C0.595585 7.94113 0 8.53672 0 9.26466C0 9.99259 0.595585 10.5882 1.32352 10.5882C2.05146 10.5882 2.64704 9.99259 2.64704 9.26466C2.64704 8.53672 2.05146 7.94113 1.32352 7.94113Z" fill="#292929"/>
</svg>
