<svg width="74" height="19" viewBox="0 0 74 19" fill="none" xmlns="http://www.w3.org/2000/svg">
<path d="M73.1278 5.90203V6.16766C73.1278 8.13581 73.1278 10.1055 73.1278 12.0737C73.1278 12.4294 73.1692 12.389 72.7964 12.389C70.7553 12.3921 69.0836 13.7094 68.7456 15.5968C68.6909 15.9012 68.6926 16.2134 68.666 16.5412H6.18015C6.18015 16.4573 6.18015 16.3719 6.18015 16.288C6.18015 14.0636 4.40573 12.3937 2.03983 12.3905C1.99013 12.3905 1.93048 12.4061 1.89072 12.3859C1.83439 12.3564 1.78469 12.3082 1.75155 12.257C1.73167 12.2274 1.74658 12.1777 1.74658 12.1373C1.74658 10.1412 1.74658 8.14668 1.74658 6.15057C1.74658 6.07756 1.74658 6.00455 1.74658 5.90358C1.89403 5.90358 2.01332 5.90358 2.13261 5.90358C4.36431 5.90203 6.18015 4.19485 6.18015 2.10243C6.18015 1.70632 6.11885 1.74205 6.55459 1.74205C27.1286 1.74205 47.701 1.74205 68.275 1.74205C68.5512 1.74205 68.6892 1.86942 68.6892 2.12418C68.6909 4.18398 70.525 5.90203 72.7219 5.90203C72.8494 5.90203 72.977 5.90203 73.1294 5.90203H73.1278ZM72.3508 11.6403C72.3524 11.6201 72.359 11.5937 72.359 11.5673C72.359 9.96881 72.359 8.37192 72.364 6.77348C72.364 6.63523 72.2994 6.61348 72.1735 6.5964C69.96 6.31368 68.3148 4.80689 67.9669 2.74709C67.9338 2.5524 67.8139 2.45505 67.6074 2.45505C59.05 2.45505 50.4944 2.4535 41.937 2.4535C30.3677 2.4535 18.7983 2.4535 7.2289 2.4535C7.04003 2.4535 6.94228 2.47525 6.90914 2.68651C6.58607 4.77893 4.98561 6.2795 2.74562 6.58863C2.5435 6.61659 2.50705 6.68494 2.50705 6.8527C2.51202 8.37658 2.51367 9.90046 2.50373 11.4228C2.50373 11.6232 2.56835 11.6822 2.77213 11.7071C4.92431 11.9742 6.62086 13.5587 6.90251 15.5703C6.93234 15.7847 7.01021 15.8375 7.23553 15.8375C11.5564 15.8313 15.879 15.8329 20.1999 15.8329C36.0123 15.8329 51.8248 15.8329 67.6355 15.836C67.8559 15.836 67.9304 15.7894 67.9685 15.5703C68.2867 13.756 69.3752 12.5241 71.2208 11.8997C71.5754 11.7801 71.9564 11.7257 72.3491 11.6372L72.3508 11.6403Z" fill="#7BA4FF"/>
<path d="M70.5176 3.47787C70.5185 2.99554 70.7174 2.60639 70.9583 2.61187C71.1992 2.61735 71.3935 3.01929 71.3881 3.49979C71.3826 3.9748 71.1901 4.35299 70.9528 4.35299C70.7129 4.35299 70.5158 3.95836 70.5176 3.47604V3.47787Z" fill="#E2E2E2"/>
<path d="M3.48239 3.4788C3.48422 3.96061 3.28711 4.35481 3.04621 4.35299C2.80439 4.34934 2.60911 3.95513 2.61184 3.47515C2.61367 3.00612 2.80712 2.61922 3.04347 2.61192C3.28346 2.60462 3.48148 2.99517 3.48239 3.48063V3.4788Z" fill="#E2E2E2"/>
<path d="M70.956 15.6703C70.7136 15.674 70.5176 15.2855 70.5176 14.7998C70.5176 14.3123 70.7099 13.9292 70.9551 13.9292C71.1931 13.9292 71.3854 14.3104 71.3881 14.7851C71.3909 15.2708 71.1985 15.6649 70.956 15.6685V15.6703Z" fill="#E2E2E2"/>
<path d="M3.04072 15.6685C2.80437 15.663 2.61182 15.2727 2.61182 14.8017C2.61182 14.3051 2.81075 13.9184 3.06079 13.9294C3.29897 13.9404 3.48422 14.3253 3.48239 14.8054C3.48057 15.2928 3.28528 15.6758 3.04163 15.6703L3.04072 15.6685Z" fill="#E2E2E2"/>
<path d="M64.1075 6.69239C64.2022 6.64376 64.2889 6.60161 64.3739 6.55947C64.3836 6.57243 64.3948 6.58702 64.4044 6.59999C64.3916 6.62917 64.3868 6.66645 64.3659 6.68428C64.1059 6.90636 64.0818 7.19814 64.0866 7.52072C64.0995 8.63922 64.0962 9.75771 64.0866 10.8762C64.085 11.1129 64.1139 11.3204 64.2985 11.4841C64.3434 11.523 64.3707 11.5813 64.4237 11.6543H62.3627C62.3771 11.6202 62.382 11.583 62.4028 11.5651C62.65 11.3431 62.6821 11.061 62.6773 10.7449C62.6628 9.94251 62.6725 9.14011 62.6709 8.33933C62.6709 8.27449 62.6629 8.20803 62.6131 8.1367C62.5232 8.44307 62.4333 8.74782 62.345 9.05419C62.0625 10.0333 61.7784 11.0108 61.5007 11.9915C61.459 12.1374 61.3948 12.1957 61.2407 12.1876C60.9903 12.1746 60.7383 12.1746 60.4879 12.1876C60.3402 12.1957 60.2856 12.139 60.2455 11.9996C59.9036 10.7676 59.5537 9.53726 59.2054 8.30853C59.1845 8.23559 59.1588 8.16264 59.0882 8.0897C59.0882 8.1594 59.0882 8.2291 59.0882 8.29719C59.0882 9.17739 59.093 10.056 59.085 10.9362C59.0834 11.1291 59.1139 11.2944 59.2519 11.4355C59.3049 11.4889 59.3402 11.557 59.4044 11.6494H57.4702C57.475 11.63 57.4718 11.604 57.4831 11.5927C57.7543 11.3463 57.7672 11.0318 57.7624 10.6898C57.7479 9.58589 57.7511 8.48036 57.7624 7.37645C57.7656 7.12844 57.719 6.92257 57.5424 6.7475C57.5039 6.71022 57.4798 6.65835 57.4766 6.56757C57.5617 6.60486 57.6468 6.64376 57.7463 6.68753C57.8025 6.42006 57.5328 6.31632 57.459 6.0991H60.2455C60.3274 6.26769 59.9887 6.44924 60.2134 6.62269C60.2343 6.80262 60.2359 6.98741 60.2776 7.1641C60.4558 7.90976 60.6452 8.65057 60.833 9.39461C60.849 9.46107 60.8699 9.52753 60.9052 9.65559C60.9421 9.53401 60.9646 9.47079 60.9807 9.40758C61.1829 8.61004 61.3868 7.81412 61.5794 7.01497C61.6083 6.89339 61.5842 6.75723 61.5842 6.63241C61.8378 6.45896 61.5232 6.28065 61.5778 6.09424H64.3948C64.3547 6.31956 64.032 6.4152 64.1075 6.69563V6.69239ZM62.6677 7.63419C62.65 7.63257 62.6324 7.63095 62.6147 7.62933C62.5922 7.70228 62.5681 7.7736 62.5473 7.84655C62.2006 9.04771 61.8506 10.2489 61.5104 11.4517C61.4638 11.6154 61.3948 11.6818 61.223 11.6705C60.9871 11.6559 60.7495 11.6575 60.5136 11.6705C60.3531 11.6786 60.284 11.6219 60.2391 11.463C59.8924 10.2181 59.5376 8.97477 59.1845 7.73145C59.1685 7.67634 59.146 7.62123 59.1267 7.56773C59.0978 7.63095 59.101 7.68607 59.1155 7.73794C59.4943 9.08337 59.8763 10.4272 60.2519 11.7742C60.2872 11.9039 60.3547 11.938 60.475 11.9347C60.7319 11.9282 60.9903 11.9234 61.2487 11.9363C61.406 11.9445 61.4638 11.8796 61.5055 11.7337C61.8795 10.4239 62.2616 9.11579 62.6404 7.80602C62.6564 7.75091 62.6596 7.69093 62.6693 7.63257L62.6677 7.63419Z" fill="#E2E2E2"/>
<path d="M33.1151 6.56459C33.2073 6.60838 33.3013 6.65217 33.4044 6.70245C33.502 6.42348 33.1549 6.32617 33.0952 6.09748H36.2307C36.1681 6.42402 36.1518 6.59 36.1819 6.5954C36.2127 6.81274 36.2199 7.01872 36.2723 7.21497C36.4857 8.00807 36.7136 8.79631 36.9486 9.62996C36.9902 9.55535 37.0192 9.51967 37.03 9.48075C37.2687 8.64223 37.5092 7.80533 37.7389 6.96357C37.7678 6.85491 37.7425 6.73326 37.7425 6.62784C38.0083 6.45105 37.6611 6.27913 37.7298 6.09424H40.8907C40.8437 6.32292 40.4657 6.42186 40.5652 6.70731C40.6701 6.65703 40.7713 6.60838 40.9142 6.54026C40.8961 6.61649 40.8979 6.64406 40.8853 6.65379C40.5507 6.91005 40.5381 7.24578 40.5435 7.60908C40.5598 8.69899 40.5562 9.79053 40.5435 10.8821C40.5399 11.1221 40.5887 11.3216 40.7876 11.487C40.831 11.5227 40.8599 11.5746 40.9178 11.6476H38.6321C38.6321 11.6298 38.6249 11.6103 38.6321 11.6038C38.954 11.3394 38.9685 11.0021 38.9594 10.6404C38.9414 9.88135 38.954 9.12069 38.954 8.36002C38.954 8.28541 38.954 8.20918 38.954 8.13458C38.9323 8.12971 38.9124 8.12647 38.8907 8.1216C38.8509 8.24324 38.8094 8.36488 38.7696 8.48815C38.388 9.6624 38.0047 10.8366 37.6285 12.0141C37.5851 12.1471 37.5164 12.1925 37.3645 12.1877C37.0752 12.1779 36.7841 12.1763 36.4948 12.1877C36.3248 12.1958 36.2669 12.1309 36.2235 11.9947C35.8383 10.7701 35.4459 9.54562 35.0554 8.32272C35.0355 8.25946 35.0083 8.19783 34.9378 8.14269C34.9342 8.21729 34.927 8.29028 34.927 8.36489C34.927 9.25206 34.9197 10.1392 34.9324 11.0248C34.9324 11.1464 35.0083 11.2729 35.068 11.3881C35.1132 11.474 35.1928 11.547 35.2778 11.6492H33.1078C33.1078 11.6265 33.1006 11.607 33.1078 11.6006C33.4207 11.3427 33.4424 11.0134 33.4369 10.6582C33.4207 9.56833 33.4243 8.4768 33.4369 7.38526C33.4406 7.13712 33.3917 6.93113 33.191 6.75759C33.1476 6.72029 33.1187 6.66839 33.0825 6.62297C33.0934 6.60189 33.1042 6.5808 33.1151 6.55972V6.56459ZM34.9921 7.63179C34.9686 7.63666 34.9469 7.64314 34.9234 7.64801C34.9631 7.781 35.0011 7.914 35.0427 8.04537C35.4333 9.27477 35.8275 10.5042 36.2109 11.7368C36.2597 11.8957 36.3392 11.9525 36.5201 11.9444C36.7859 11.933 37.0535 11.9314 37.3193 11.9444C37.5074 11.9541 37.5924 11.8974 37.6466 11.7287C38.0607 10.4312 38.4893 9.13853 38.9106 7.84264C38.9341 7.77289 38.9396 7.69829 38.954 7.62692C38.9341 7.62206 38.916 7.61719 38.8962 7.61395C38.869 7.69018 38.8401 7.76641 38.8148 7.84264C38.4206 9.05743 38.0228 10.2706 37.634 11.487C37.5888 11.6281 37.5182 11.6784 37.3555 11.6735C37.0734 11.6622 36.7913 11.6622 36.5092 11.6735C36.3356 11.6817 36.2651 11.6216 36.2199 11.474C35.8836 10.3971 35.54 9.32342 35.1964 8.24973C35.1295 8.04213 35.0608 7.83777 34.9921 7.63017V7.63179Z" fill="#E2E2E2"/>
<path d="M21.5581 9.52473C21.6002 9.63807 21.6246 9.70537 21.6517 9.77621C21.881 9.71423 22.0356 9.55837 22.1428 9.23073C22.1428 9.66641 21.9963 9.8931 21.7277 10.0295C21.7928 10.2331 21.8538 10.4226 21.9135 10.6104C21.9596 10.752 22.0098 10.8902 22.0505 11.0336C22.1767 11.4729 22.3123 11.9032 22.6352 12.1884H20.907C20.8663 11.9652 20.8378 11.7562 20.789 11.5561C20.7198 11.271 20.6371 10.9911 20.5598 10.7095C20.4187 10.1977 20.1799 10.0295 19.7459 10.1499C19.7459 10.6564 19.7377 11.17 19.7526 11.6818C19.7554 11.7775 19.8422 11.8713 19.8937 11.9634C19.9303 12.029 19.971 12.0927 20.0294 12.1884H18.2822C18.2917 12.1582 18.2944 12.1264 18.308 12.1087C18.5237 11.8536 18.5467 11.5278 18.544 11.1682C18.5318 9.95509 18.5345 8.74016 18.544 7.527C18.5454 7.25958 18.5183 7.02934 18.3636 6.83984C18.3311 6.79911 18.3094 6.74243 18.2836 6.69285C18.2917 6.67336 18.2985 6.65565 18.3066 6.63617C18.3785 6.67868 18.4504 6.72118 18.5305 6.76723C18.5847 6.47501 18.3541 6.36166 18.2863 6.10841C18.3446 6.10309 18.3975 6.09424 18.4504 6.09424C19.4217 6.09424 20.3916 6.09424 21.3628 6.09424C21.451 6.09424 21.5391 6.10132 21.6259 6.1208C22.0044 6.20581 22.1523 6.43428 22.155 6.93725C22.1577 7.42074 22.1441 7.906 22.159 8.38949C22.1767 8.95268 22.0926 9.41138 21.5608 9.51764L21.5581 9.52473ZM19.7418 8.7313C20.0158 8.7313 20.2668 8.7437 20.5177 8.72776C20.8134 8.71005 20.9545 8.50461 20.9586 8.12561C20.9626 7.7165 20.8365 7.5146 20.5326 7.4845C20.3115 7.46324 20.0877 7.47918 19.8639 7.4721C19.773 7.46856 19.7391 7.51992 19.7404 7.63504C19.7432 7.98747 19.7404 8.33813 19.7404 8.72953L19.7418 8.7313ZM20.9246 11.7722C20.9436 11.7651 20.9626 11.7598 20.9816 11.7527C20.9708 11.6889 20.964 11.6252 20.9477 11.565C20.8134 11.0744 20.6805 10.5838 20.5421 10.095C20.4133 9.63807 20.1216 9.45565 19.7554 9.59911C19.7282 9.7461 19.7323 9.83997 19.8869 9.84705C20.3509 9.86831 20.4228 9.94977 20.5815 10.5289C20.694 10.9433 20.8107 11.3577 20.9246 11.7722ZM20.9423 7.51815C20.9518 7.1604 20.8134 6.95319 20.5421 6.93017C20.3142 6.91068 20.085 6.91777 19.8571 6.93017C19.8178 6.93194 19.7811 7.02226 19.7432 7.07185C19.7852 7.11612 19.8245 7.19228 19.8693 7.19759C20.0144 7.21353 20.1623 7.20999 20.3088 7.2029C20.5475 7.19228 20.7781 7.20999 20.9423 7.5146V7.51815Z" fill="#E2E2E2"/>
<path d="M53.9454 6.09778C53.8713 6.34916 53.5662 6.45538 53.6403 6.75456C53.7386 6.70322 53.8282 6.6572 53.9765 6.5793C53.9403 6.67844 53.9385 6.71385 53.9213 6.72978C53.6437 6.9847 53.6162 7.30867 53.6213 7.66805C53.6368 8.86655 53.6282 10.065 53.6265 11.2635C53.6265 11.8778 53.4231 12.1434 52.8249 12.1629C51.8457 12.1947 50.8648 12.1983 49.8873 12.1646C49.2649 12.1434 49.0667 11.8778 49.0667 11.2317C49.0667 9.99423 49.0615 8.75856 49.0719 7.52111C49.0736 7.24671 49.0425 7.00595 48.8374 6.81298C48.796 6.77404 48.7719 6.71562 48.7684 6.61471C48.8581 6.65543 48.9495 6.69614 49.0512 6.74217C49.1218 6.44653 48.8098 6.34208 48.7529 6.09601H50.9251C50.8837 6.33677 50.5441 6.43945 50.6286 6.74217C50.7268 6.69614 50.8199 6.65188 50.9113 6.6094C50.9199 6.62356 50.9303 6.63949 50.9389 6.65365C50.9268 6.68021 50.9216 6.71385 50.9027 6.72978C50.6182 6.98293 50.5993 7.31044 50.6044 7.66981C50.62 8.73023 50.6096 9.79065 50.6096 10.8493C50.6096 11.2034 50.7234 11.3414 51.0665 11.3609C51.2975 11.3751 51.5302 11.3715 51.7595 11.3467C52.0215 11.3184 52.1318 11.1892 52.1318 10.9183C52.137 9.68974 52.137 8.46114 52.1318 7.23078C52.1318 7.14934 52.0784 7.06083 52.0319 6.98647C51.9612 6.87317 51.8733 6.76873 51.794 6.66251C51.806 6.6448 51.8198 6.62533 51.8319 6.60763C51.9232 6.65366 52.0129 6.69969 52.1181 6.75279C52.1939 6.45361 51.8784 6.34208 51.8129 6.09424H53.9454V6.09778Z" fill="#E2E2E2"/>
<path d="M11.2539 9.87759C11.9697 9.87759 12.667 9.88999 13.3644 9.8705C13.5886 9.86341 13.7852 9.72874 13.8927 9.45584C13.9342 9.7376 13.8267 9.97682 13.5825 10.0672C13.3951 10.1363 13.1923 10.1735 12.9957 10.1788C12.4704 10.1948 11.9436 10.1895 11.4168 10.1824C11.2801 10.1824 11.2278 10.2249 11.2324 10.3897C11.2417 10.7813 11.2309 11.173 11.2386 11.5646C11.2401 11.6567 11.2785 11.7542 11.3215 11.8339C11.3845 11.9491 11.4674 12.0501 11.5611 12.1884H9.57973C9.59816 12.1441 9.60431 12.1104 9.6212 12.0927C9.87157 11.8375 9.88693 11.5097 9.88385 11.1517C9.87157 9.94493 9.8731 8.73815 9.88385 7.53138C9.88693 7.26203 9.84699 7.0352 9.6765 6.84382C9.63503 6.79775 9.60892 6.73395 9.57666 6.67902C9.58741 6.6613 9.59816 6.64358 9.60892 6.62586C9.69339 6.67547 9.77787 6.72509 9.86696 6.77648C9.93454 6.47523 9.65192 6.36714 9.58895 6.10842C9.65499 6.1031 9.71643 6.09424 9.77941 6.09424C10.8592 6.09424 11.9374 6.09424 13.0172 6.09424C13.091 6.09424 13.1647 6.09601 13.2369 6.10487C13.7376 6.16335 13.9296 6.40789 13.9296 6.98558C13.9296 7.5934 13.9296 8.19945 13.9296 8.80726C13.9296 9.28218 13.7637 9.53026 13.3551 9.58697C13.0326 9.63304 12.7039 9.62418 12.3783 9.63127C12.0588 9.63836 11.7393 9.64013 11.4198 9.63127C11.2493 9.62595 11.2033 9.70215 11.2539 9.87759ZM11.237 8.14451C11.237 8.32172 11.2278 8.49892 11.2417 8.67436C11.2463 8.72575 11.3123 8.80904 11.3522 8.81081C11.6118 8.8179 11.8745 8.8303 12.131 8.79663C12.4843 8.74879 12.5872 8.55563 12.5733 8.05059C12.5641 7.69264 12.4167 7.50657 12.0926 7.47999C11.853 7.4605 11.6134 7.46404 11.3737 7.47999C11.3261 7.48353 11.2493 7.57923 11.2417 7.63948C11.2232 7.80605 11.2355 7.97617 11.2355 8.14629L11.237 8.14451ZM12.5518 7.49062C12.5657 7.13975 12.4213 6.95546 12.1156 6.92888C11.8653 6.90761 11.6118 6.91647 11.3615 6.92711C11.3185 6.92888 11.2785 7.00862 11.2386 7.05292C11.2816 7.10254 11.32 7.19114 11.3661 7.19469C11.5504 7.21064 11.7362 7.20709 11.9221 7.20178C12.1556 7.19469 12.3706 7.2319 12.5518 7.49062Z" fill="#E2E2E2"/>
<path d="M29.5967 7.38226C29.3552 7.26565 29.1535 7.14727 28.9439 7.07307C28.7355 6.99886 28.5206 6.94939 28.307 6.92289C28.1066 6.89815 27.9049 6.91582 27.7033 6.91935C27.5414 6.92112 27.5387 6.92995 27.5679 7.20205C27.7683 7.20205 27.9753 7.21442 28.1796 7.19851C28.4848 7.17554 28.774 7.23385 29.0527 7.40347C29.1827 7.48298 29.322 7.53951 29.4587 7.59428C29.5821 7.64376 29.6312 7.73033 29.5701 7.91939C29.3645 7.82044 29.1575 7.73387 28.9571 7.62255C28.7342 7.50064 28.5087 7.44234 28.2685 7.46177C28.0854 7.47591 27.8996 7.47237 27.7165 7.46177C27.5945 7.4547 27.5387 7.49888 27.5427 7.67733C27.552 8.01303 27.5454 8.35049 27.5454 8.71446C28.0575 8.71623 28.5564 8.80457 29.0474 8.49184V9.75867C29.0142 9.75336 28.989 9.75867 28.9704 9.7463C28.5617 9.49364 28.1265 9.55548 27.6966 9.55194C27.6197 9.55194 27.544 9.54488 27.5467 9.70036C27.5493 9.85761 27.6303 9.83818 27.7033 9.83818C27.8413 9.83994 27.9806 9.85054 28.1172 9.83641C28.3999 9.80814 28.6652 9.88588 28.9279 10.0113C29.0646 10.0767 29.0659 10.0732 29.0381 10.3099C29.0009 10.2993 28.9611 10.2993 28.9266 10.2799C28.5219 10.0378 28.092 10.105 27.6688 10.1085C27.6276 10.1085 27.5547 10.1933 27.5533 10.241C27.544 10.6067 27.548 10.9743 27.548 11.3435C28.2605 11.4902 28.9266 11.3329 29.594 10.8718C29.594 11.3276 29.598 11.7128 29.5861 12.0962C29.5861 12.1298 29.4786 12.1845 29.4215 12.1845C28.6042 12.1898 27.7868 12.1881 26.9682 12.1881C26.6882 12.1881 26.4069 12.1881 26.1283 12.1881C26.127 12.1474 26.1217 12.1262 26.1256 12.1209C26.3578 11.8418 26.3724 11.4831 26.3685 11.0962C26.3565 9.90885 26.3592 8.71976 26.3685 7.53068C26.3711 7.25505 26.3393 7.01829 26.184 6.82394C26.1522 6.7833 26.1323 6.72853 26.1296 6.62959C26.1999 6.67023 26.2703 6.71263 26.3525 6.7621C26.4056 6.46881 26.1734 6.3628 26.1177 6.11014C26.1761 6.10661 26.2291 6.09954 26.2835 6.09954C27.3251 6.09954 28.368 6.10307 29.4096 6.09424C29.5675 6.09424 29.606 6.15784 29.5993 6.35573C29.5874 6.6826 29.5967 7.01123 29.5967 7.38403V7.38226Z" fill="#E2E2E2"/>
<path d="M45.2685 6.09424C45.2182 6.28968 45.1741 6.45136 45.1347 6.62015C45.1272 6.65035 45.1367 6.7072 45.1381 6.75517C45.1788 6.70543 45.2168 6.65923 45.2549 6.61304C45.2589 6.62903 45.2623 6.64502 45.2664 6.66101C45.2617 6.68766 45.2589 6.72142 45.2515 6.73919C45.1347 6.99503 45.1292 7.3326 45.1306 7.70038C45.136 8.91032 45.1354 10.1203 45.1306 11.3302C45.1299 11.6003 45.1462 11.8295 45.2236 12.0178C45.2399 12.0569 45.2494 12.112 45.2705 12.1884H44.4081C44.4148 12.1439 44.4162 12.0995 44.4257 12.08C44.531 11.8419 44.533 11.5292 44.5323 11.1969C44.5282 9.96391 44.5282 8.73088 44.5323 7.49784C44.533 7.23844 44.5187 7.01457 44.4447 6.8298C44.4264 6.7836 44.4148 6.71964 44.3999 6.66456C44.404 6.64857 44.4081 6.63081 44.4128 6.61482C44.4488 6.65923 44.4841 6.70365 44.5242 6.7534C44.5574 6.45136 44.4284 6.34475 44.4067 6.09601H45.2691L45.2685 6.09424Z" fill="#E2E2E2"/>
</svg>
