<svg width="11" height="11" viewBox="0 0 11 11" fill="none" xmlns="http://www.w3.org/2000/svg">
<path d="M10.8958 10.4016L8.05577 7.60692C8.79949 6.7989 9.25646 5.73028 9.25646 4.55438C9.2561 2.0389 7.18414 0 4.62805 0C2.07196 0 0 2.0389 0 4.55438C0 7.06985 2.07196 9.10876 4.62805 9.10876C5.73246 9.10876 6.7454 8.72676 7.54105 8.0917L10.3921 10.8974C10.5311 11.0342 10.7566 11.0342 10.8955 10.8974C10.9286 10.8651 10.9548 10.8265 10.9728 10.784C10.9907 10.7414 11 10.6957 11 10.6495C11 10.6033 10.9908 10.5576 10.9729 10.515C10.9551 10.4725 10.9288 10.4339 10.8958 10.4016ZM4.62805 8.40804C2.46532 8.40804 0.712091 6.6827 0.712091 4.55438C0.712091 2.42606 2.46532 0.700718 4.62805 0.700718C6.7908 0.700718 8.54401 2.42606 8.54401 4.55438C8.54401 6.6827 6.7908 8.40804 4.62805 8.40804Z" fill="#454545"/>
</svg>
