<svg width="18" height="20" viewBox="0 0 18 20" fill="none" xmlns="http://www.w3.org/2000/svg">
<path d="M14.454 10.7976H12.5542C12.7479 11.3065 12.8537 11.8556 12.8537 12.428V19.3193C12.8537 19.5579 12.8104 19.7869 12.7317 20H15.8724C17.0456 20 18 19.0838 18 17.9578V14.2011C18 12.3245 16.4093 10.7976 14.454 10.7976ZM7.88916 9.02451H3.54607C1.59077 9.02451 0 10.5513 0 12.428V19.3193C0 19.6952 0.31752 20 0.709214 20H10.726C11.1177 20 11.4352 19.6952 11.4352 19.3193V12.428C11.4352 10.5513 9.84447 9.02451 7.88916 9.02451ZM5.71762 0C3.36611 0 1.45302 1.83617 1.45302 4.09318C1.45302 5.62409 2.33337 6.96114 3.63349 7.66311C4.25015 7.99605 4.9611 8.18633 5.71762 8.18633C6.47414 8.18633 7.18508 7.99605 7.80174 7.66311C9.10191 6.96114 9.98221 5.62405 9.98221 4.09318C9.98221 1.83622 8.06913 0 5.71762 0ZM13.2062 3.81514C11.4475 3.81514 10.0168 5.18833 10.0168 6.87627C10.0163 7.37793 10.1451 7.87193 10.3917 8.31425C10.7321 8.9256 11.2822 9.41363 11.9494 9.68928C12.3463 9.85332 12.774 9.93775 13.2062 9.9374C14.9648 9.9374 16.3955 8.56421 16.3955 6.87627C16.3955 5.18833 14.9648 3.81514 13.2062 3.81514Z" fill="#8E8E8E"/>
</svg>
